# xmcd
#
# Track frame offsets:
#	150
#	12397
#	23970
#	36256
#	49331
#	62428
#	75672
#	87817
#	99236
#	111681
#	124280
#	136051
#	147534
#	158308
#	170089
#	182420
#	193165
#	204418
#	216665
#	228226
#
# Disc length: 3206 seconds
#
# Revision: 0
# Processed by: cddbd v1.5.2PL0 Copyright (c) Steve Scherf et al.
# Submitted via: audiograbber 1.83.01
#
DISCID=1a0c8414
DTITLE=Hank Williams - 40 Greatest Hits [Disc 1]
DYEAR=1951
DGENRE=Country
TTITLE0=Move It On Over
TTITLE1=A Mansion On The Hill
TTITLE2=Lovesick Blues
TTITLE3=Wedding Bells
TTITLE4=Mind Your Own Business
TTITLE5=You're Gonna Change (Or I'm Gonna Leave)
TTITLE6=Lost Highway
TTITLE7=My Bucket's Got A Hole In It
TTITLE8=I'm So Lonesome I Could Cry
TTITLE9=I Just Don't Like This Kind Of Living
TTITLE10=Long Gone Lonesome Blues
TTITLE11=My Son Calls Another Man Daddy
TTITLE12=Why Don't You Love Me
TTITLE13=Why Should We Try Anymore
TTITLE14=They'll Never Take Her Love From Me
TTITLE15=Moanin' The Blues
TTITLE16=Nobody's Lonesome For Me
TTITLE17=Cold Cold Heart
TTITLE18=Dear John
TTITLE19=Howlin' At The Moon
EXTD=YEAR: 1951
EXTT0=
EXTT1=
EXTT2=
EXTT3=
EXTT4=
EXTT5=
EXTT6=
EXTT7=
EXTT8=
EXTT9=
EXTT10=
EXTT11=
EXTT12=
EXTT13=
EXTT14=
EXTT15=
EXTT16=
EXTT17=
EXTT18=
EXTT19=
PLAYORDER=
